# xmcd
#
# Track frame offsets:
#	150
#	17754
#	39069
#	58373
#	74400
#	91652
#	111921
#	134875
#	154702
#	174259
#	190311
#	212275
#	233525
#	249587
#	266002
#	284255
#	301569
#
# Disc length: 4248 seconds
#
# Revision: 0
# Processed by: cddbd v1.5.2PL0 Copyright (c) Steve Scherf et al.
# Submitted via: EZCDAudioConverter 2.8.0.1
#
DISCID=e2109611
DTITLE=群星 - 天若有情-女人篇
DYEAR=2000
DGENRE=
TTITLE0=袁凤瑛 - 天若有情
TTITLE1=刘文娟 - 红天灰雨
TTITLE2=冯傅娟 - 分手也是时候
TTITLE3=雷安娜 - 相识也是缘分
TTITLE4=林志美 - 你的眼神
TTITLE5=彭家丽 - 昨天，今天，下雨天
TTITLE6=黎姿 - 情深海更深
TTITLE7=陈慧娴 - 孤单背影
TTITLE8=王菲 - 容易受伤的女人
TTITLE9=李雅 - 醉酒的探戈
TTITLE10=刘美君 - 一双旧皮鞋
TTITLE11=刘小慧 - 初恋情人
TTITLE12=徐小凤 - 顺流逆流
TTITLE13=张德兰 - 旧梦不需记
TTITLE14=甄妮 - 梦想号黄包车
TTITLE15=黎瑞恩 - 一个人有一个梦想
TTITLE16=陈淑仪 - 难得有情人
EXTD=
EXTT0=
EXTT1=
EXTT2=
EXTT3=
EXTT4=
EXTT5=
EXTT6=
EXTT7=
EXTT8=
EXTT9=
EXTT10=
EXTT11=
EXTT12=
EXTT13=
EXTT14=
EXTT15=
EXTT16=
PLAYORDER=
